<mxfile host="app.diagrams.net" modified="2024-03-10T14:32:11.503Z" agent="Mozilla/5.0 (Windows NT 10.0; Win64; x64; rv:123.0) Gecko/20100101 Firefox/123.0" etag="EXPfrcp1tGbZBiRUpu7-" version="24.0.1" type="device">
  <diagram name="Page-1" id="5UWweb2O0xLkZrzqG48C">
    <mxGraphModel dx="1167" dy="589" grid="1" gridSize="10" guides="1" tooltips="1" connect="1" arrows="1" fold="1" page="1" pageScale="1" pageWidth="827" pageHeight="1169" math="0" shadow="0">
      <root>
        <mxCell id="0" />
        <mxCell id="1" parent="0" />
        <mxCell id="WejuZ3t0MLKhjmnwWVy3-6" style="edgeStyle=orthogonalEdgeStyle;rounded=0;orthogonalLoop=1;jettySize=auto;html=1;exitX=0.5;exitY=1;exitDx=0;exitDy=0;entryX=0;entryY=0.5;entryDx=0;entryDy=0;" edge="1" parent="1" source="WejuZ3t0MLKhjmnwWVy3-1" target="WejuZ3t0MLKhjmnwWVy3-2">
          <mxGeometry relative="1" as="geometry" />
        </mxCell>
        <mxCell id="WejuZ3t0MLKhjmnwWVy3-1" value="Join a channel" style="rounded=0;whiteSpace=wrap;html=1;fillColor=#d5e8d4;strokeColor=#82b366;" vertex="1" parent="1">
          <mxGeometry x="354" y="10" width="120" height="60" as="geometry" />
        </mxCell>
        <mxCell id="WejuZ3t0MLKhjmnwWVy3-8" style="edgeStyle=orthogonalEdgeStyle;rounded=0;orthogonalLoop=1;jettySize=auto;html=1;exitX=0.5;exitY=1;exitDx=0;exitDy=0;entryX=0.5;entryY=0;entryDx=0;entryDy=0;" edge="1" parent="1" source="WejuZ3t0MLKhjmnwWVy3-2" target="WejuZ3t0MLKhjmnwWVy3-7">
          <mxGeometry relative="1" as="geometry" />
        </mxCell>
        <mxCell id="WejuZ3t0MLKhjmnwWVy3-2" value="Get Token" style="rounded=0;whiteSpace=wrap;html=1;fillColor=#d5e8d4;strokeColor=#82b366;" vertex="1" parent="1">
          <mxGeometry x="520" y="100" width="120" height="60" as="geometry" />
        </mxCell>
        <mxCell id="WejuZ3t0MLKhjmnwWVy3-10" style="edgeStyle=orthogonalEdgeStyle;rounded=0;orthogonalLoop=1;jettySize=auto;html=1;exitX=0.5;exitY=1;exitDx=0;exitDy=0;entryX=0;entryY=0.5;entryDx=0;entryDy=0;" edge="1" parent="1" source="WejuZ3t0MLKhjmnwWVy3-3" target="WejuZ3t0MLKhjmnwWVy3-4">
          <mxGeometry relative="1" as="geometry" />
        </mxCell>
        <mxCell id="WejuZ3t0MLKhjmnwWVy3-3" value="Start recording" style="rounded=0;whiteSpace=wrap;html=1;fillColor=#ffe6cc;strokeColor=#d79b00;" vertex="1" parent="1">
          <mxGeometry x="354" y="280" width="120" height="60" as="geometry" />
        </mxCell>
        <mxCell id="WejuZ3t0MLKhjmnwWVy3-11" style="edgeStyle=orthogonalEdgeStyle;rounded=0;orthogonalLoop=1;jettySize=auto;html=1;exitX=0.5;exitY=1;exitDx=0;exitDy=0;entryX=0.5;entryY=0;entryDx=0;entryDy=0;" edge="1" parent="1" source="WejuZ3t0MLKhjmnwWVy3-4" target="WejuZ3t0MLKhjmnwWVy3-5">
          <mxGeometry relative="1" as="geometry" />
        </mxCell>
        <mxCell id="WejuZ3t0MLKhjmnwWVy3-4" value="Aquire" style="rounded=0;whiteSpace=wrap;html=1;fillColor=#ffe6cc;strokeColor=#d79b00;" vertex="1" parent="1">
          <mxGeometry x="520" y="380" width="120" height="60" as="geometry" />
        </mxCell>
        <mxCell id="WejuZ3t0MLKhjmnwWVy3-13" style="edgeStyle=orthogonalEdgeStyle;rounded=0;orthogonalLoop=1;jettySize=auto;html=1;exitX=0.5;exitY=1;exitDx=0;exitDy=0;entryX=0.5;entryY=0;entryDx=0;entryDy=0;" edge="1" parent="1" source="WejuZ3t0MLKhjmnwWVy3-5" target="WejuZ3t0MLKhjmnwWVy3-12">
          <mxGeometry relative="1" as="geometry" />
        </mxCell>
        <mxCell id="WejuZ3t0MLKhjmnwWVy3-5" value="Start" style="rounded=0;whiteSpace=wrap;html=1;fillColor=#ffe6cc;strokeColor=#d79b00;" vertex="1" parent="1">
          <mxGeometry x="520" y="470" width="120" height="60" as="geometry" />
        </mxCell>
        <mxCell id="WejuZ3t0MLKhjmnwWVy3-9" style="edgeStyle=orthogonalEdgeStyle;rounded=0;orthogonalLoop=1;jettySize=auto;html=1;exitX=0.5;exitY=1;exitDx=0;exitDy=0;entryX=0.5;entryY=0;entryDx=0;entryDy=0;" edge="1" parent="1" source="WejuZ3t0MLKhjmnwWVy3-7" target="WejuZ3t0MLKhjmnwWVy3-3">
          <mxGeometry relative="1" as="geometry" />
        </mxCell>
        <mxCell id="WejuZ3t0MLKhjmnwWVy3-7" value="Call online" style="rounded=0;whiteSpace=wrap;html=1;fillColor=#d5e8d4;strokeColor=#82b366;" vertex="1" parent="1">
          <mxGeometry x="354" y="190" width="120" height="60" as="geometry" />
        </mxCell>
        <mxCell id="WejuZ3t0MLKhjmnwWVy3-15" style="edgeStyle=orthogonalEdgeStyle;rounded=0;orthogonalLoop=1;jettySize=auto;html=1;exitX=0.5;exitY=1;exitDx=0;exitDy=0;entryX=0.5;entryY=0;entryDx=0;entryDy=0;" edge="1" parent="1" source="WejuZ3t0MLKhjmnwWVy3-12" target="WejuZ3t0MLKhjmnwWVy3-14">
          <mxGeometry relative="1" as="geometry" />
        </mxCell>
        <mxCell id="WejuZ3t0MLKhjmnwWVy3-12" value="Record call in progress" style="rounded=0;whiteSpace=wrap;html=1;fillColor=#ffe6cc;strokeColor=#d79b00;" vertex="1" parent="1">
          <mxGeometry x="354" y="555" width="120" height="60" as="geometry" />
        </mxCell>
        <mxCell id="WejuZ3t0MLKhjmnwWVy3-17" style="edgeStyle=orthogonalEdgeStyle;rounded=0;orthogonalLoop=1;jettySize=auto;html=1;exitX=0.5;exitY=1;exitDx=0;exitDy=0;entryX=0;entryY=0.5;entryDx=0;entryDy=0;" edge="1" parent="1" source="WejuZ3t0MLKhjmnwWVy3-14" target="WejuZ3t0MLKhjmnwWVy3-16">
          <mxGeometry relative="1" as="geometry" />
        </mxCell>
        <mxCell id="WejuZ3t0MLKhjmnwWVy3-14" value="stop the call or stop recording" style="rounded=0;whiteSpace=wrap;html=1;fillColor=#ffe6cc;strokeColor=#d79b00;" vertex="1" parent="1">
          <mxGeometry x="354" y="690" width="120" height="60" as="geometry" />
        </mxCell>
        <mxCell id="WejuZ3t0MLKhjmnwWVy3-19" style="edgeStyle=orthogonalEdgeStyle;rounded=0;orthogonalLoop=1;jettySize=auto;html=1;exitX=0.5;exitY=1;exitDx=0;exitDy=0;entryX=0.5;entryY=0;entryDx=0;entryDy=0;" edge="1" parent="1" source="WejuZ3t0MLKhjmnwWVy3-16" target="WejuZ3t0MLKhjmnwWVy3-18">
          <mxGeometry relative="1" as="geometry" />
        </mxCell>
        <mxCell id="WejuZ3t0MLKhjmnwWVy3-16" value="stop recording" style="rounded=0;whiteSpace=wrap;html=1;fillColor=#ffe6cc;strokeColor=#d79b00;" vertex="1" parent="1">
          <mxGeometry x="520" y="770" width="120" height="60" as="geometry" />
        </mxCell>
        <mxCell id="WejuZ3t0MLKhjmnwWVy3-21" style="edgeStyle=orthogonalEdgeStyle;rounded=0;orthogonalLoop=1;jettySize=auto;html=1;exitX=0.5;exitY=1;exitDx=0;exitDy=0;entryX=0.5;entryY=0;entryDx=0;entryDy=0;" edge="1" parent="1" source="WejuZ3t0MLKhjmnwWVy3-18" target="WejuZ3t0MLKhjmnwWVy3-20">
          <mxGeometry relative="1" as="geometry" />
        </mxCell>
        <mxCell id="WejuZ3t0MLKhjmnwWVy3-18" value="save storage link on document of the location" style="rounded=0;whiteSpace=wrap;html=1;fillColor=#ffe6cc;strokeColor=#d79b00;" vertex="1" parent="1">
          <mxGeometry x="520" y="890" width="120" height="60" as="geometry" />
        </mxCell>
        <mxCell id="WejuZ3t0MLKhjmnwWVy3-20" value="Done / User continue navigating the site" style="rounded=0;whiteSpace=wrap;html=1;fillColor=#d5e8d4;strokeColor=#82b366;" vertex="1" parent="1">
          <mxGeometry x="354" y="980" width="120" height="60" as="geometry" />
        </mxCell>
      </root>
    </mxGraphModel>
  </diagram>
</mxfile>
